<svg xmlns="http://www.w3.org/2000/svg" xmlns:xlink="http://www.w3.org/1999/xlink" viewBox="0 0 67.944 10.583" height="30" width="160" style="fill:#FFFFFF;"><g font-size="40" font-family="sans-serif"><path d="M4.138.02L3.715 0C1.947 0 0 1.344 0 2.75c0 .762.402 1.026 1.132 1.026-.01-.095-.148-.18-.148-.72 0-1.164.593-2 1.746-2.35v7.228h1.524L6.392 2.55v5.387h1.524L10.858.053h-.74L7.8 6.53V.053H6.456L4.233 6.53zm9.427 2.626l-.063.275a1.15 1.15 0 0 0-.709-.265c-2.117 0-2.773 2.18-2.773 4 0 .624.295 1.344 1.3 1.344.646 0 1.122-.434 1.44-.868.138.55.603.804 1.3.804.825 0 2.02-1.407 2.508-1.894h-.36c-.423.34-.974.93-1.397.93s-.53-.17-.53-.402c0-.095.02-.212.042-.328l.762-3.598zm-.688.603a.79.79 0 0 1 .519.19l-.593 2.805a2.46 2.46 0 0 0-.064.349c-.2.296-.434.53-.677.53-.265 0-.614-.116-.614-.75 0-1.44.635-3.122 1.43-3.122z"/><path d="M16.717.74l-1.175 5.503a2.65 2.65 0 0 0-.064.54c0 .794.497 1.154 1.312 1.154.825 0 2.02-1.407 2.508-1.894h-.36c-.423.34-.974.93-1.397.93-.413 0-.53-.16-.53-.392 0-.085.02-.18.053-.34L18.284.53z"/><path d="M19.735.74L18.56 6.244a2.65 2.65 0 0 0-.063.54c0 .794.497 1.154 1.312 1.154.825 0 2.02-1.407 2.508-1.894h-.36c-.423.34-.974.93-1.397.93-.413 0-.53-.16-.53-.392 0-.085.02-.18.053-.34L21.302.53z"/><path d="M22.245 2.646l-1.683 7.937 1.598-.38.55-2.593c.317.2.646.317.995.317 1.08 0 2-.773 2.318-3.048.042-.275.063-.52.063-.74 0-1.1-.52-1.482-1.62-1.482-.265 0-.52.074-.74.2l.042-.2zm1.3 4.498c-.17 0-.434 0-.688-.2l.762-3.556c.2-.138.402-.222.603-.222.34 0 .593.127.593.762 0 .254-.042.603-.138 1.07-.35 1.683-.603 2.138-1.132 2.138zM29.8 2.646l-.064.275a1.15 1.15 0 0 0-.709-.265c-2.117 0-2.773 2.18-2.773 4 0 .624.296 1.344 1.312 1.344.646 0 1.122-.434 1.44-.868.138.55.603.804 1.3.804.826 0 2.02-1.407 2.508-1.894h-.36c-.423.34-.974.93-1.397.93s-.53-.17-.53-.402c0-.095.02-.212.042-.328l.762-3.598zm-.688.603a.79.79 0 0 1 .519.19l-.593 2.805a2.47 2.47 0 0 0-.064.35c-.2.296-.434.53-.677.53-.265 0-.614-.116-.614-.75 0-1.44.635-3.122 1.43-3.122z"/><path d="M32.436 2.646l-1.683 7.937 1.598-.38.55-2.593c.317.2.646.317.995.317 1.08 0 2-.773 2.318-3.048.042-.275.064-.52.064-.74 0-1.1-.52-1.482-1.62-1.482-.265 0-.52.074-.74.2l.042-.2zm1.3 4.498c-.17 0-.434 0-.688-.2l.762-3.556c.2-.138.402-.222.603-.222.34 0 .593.127.593.762 0 .254-.042.603-.138 1.07-.35 1.683-.603 2.138-1.132 2.138zm4.242-.88c0-.127.01-.286.032-.455 1.005-.127 2.392-.868 2.392-2.16 0-.74-.487-1.1-1.355-1.1-1.926 0-2.498 2.36-2.498 3.704 0 .9.55 1.683 1.566 1.683 1.365 0 2.38-1.07 2.984-2.16h-.476c-.37.783-1.26 1.397-1.778 1.397-.413 0-.868-.212-.868-.9zm1.8-2.56a1.71 1.71 0 0 1-1.672 1.598c.222-.995.7-2.2 1.302-2.2.317 0 .37.37.37.593z"/><use xlink:href="#B"/><path d="M50.37 3.503l.52-2.434c.497.106.995.2 1.482.2.826-.18.857-.826 1.005-1.27a3.14 3.14 0 0 1-.952.127C51.756.127 51.09 0 50.666 0c-2.614 0-3.61 1.344-3.61 2.752 0 .762.402 1.026 1.132 1.026-.01-.095-.148-.18-.148-.72 0-1.683.56-2.148 1.376-2.19l-1.524 7.07h1.524l.783-3.65h1.588L52 3.503z"/><path d="M53.366.74L52.19 6.244a2.65 2.65 0 0 0-.063.54c0 .794.497 1.154 1.312 1.154.825 0 2.02-1.407 2.508-1.894h-.36c-.423.34-.974.93-1.397.93-.413 0-.53-.16-.53-.392 0-.085.02-.18.053-.34L54.933.53z"/><path d="M58.296 2.646l-.063.275a1.15 1.15 0 0 0-.709-.265c-2.117 0-2.773 2.18-2.773 4 0 .624.296 1.344 1.312 1.344.646 0 1.122-.434 1.44-.868.138.55.603.804 1.29.804.826 0 2.02-1.407 2.508-1.894h-.36c-.423.34-.974.93-1.397.93s-.53-.17-.53-.402c0-.095.02-.212.042-.328l.762-3.598zm-.688.603a.79.79 0 0 1 .519.19l-.593 2.805c-.032.127-.053.243-.063.35-.2.296-.434.53-.677.53-.265 0-.614-.116-.614-.75 0-1.44.635-3.122 1.43-3.122z"/><use xlink:href="#B" x="19.719"/><path d="M65.658 7.937c1.058 0 1.98-.296 1.98-1.44-.434.392-.857.677-1.355.677-.413 0-.762-.212-.762-.9 0-.127.01-.286.032-.455 1.005-.127 2.392-.868 2.392-2.16 0-.74-.487-1.1-1.355-1.1-1.926 0-2.498 2.36-2.498 3.704 0 .9.55 1.683 1.566 1.683zm1.65-4.233a1.71 1.71 0 0 1-1.672 1.598c.222-.995.71-2.19 1.302-2.19.317 0 .37.37.37.593z"/></g><defs ><path id="B" d="M41.296 2.646l-1.122 5.292h1.524l.878-4.15c.243-.222.413-.34.73-.34s.02.7.614.7c.52 0 .794-.455.794-.826 0-.402-.286-.677-.762-.677-.444 0-.868.233-1.25.53l.116-.53z"/></defs></svg>